<svg width="24" height="24" viewBox="0 0 24 24" fill="none" xmlns="http://www.w3.org/2000/svg">
<path d="M14.4057 12.0004C14.4057 9.761 14.0693 7.76362 13.5469 6.35065C13.2848 5.6416 12.9888 5.11444 12.694 4.77732C12.3984 4.43918 12.162 4.3532 12 4.35317C11.838 4.35317 11.6017 4.43917 11.306 4.77732C11.0112 5.11444 10.7152 5.64158 10.4531 6.35065C9.93068 7.76362 9.59428 9.76098 9.59428 12.0004C9.5943 14.2398 9.93063 16.2371 10.4531 17.6501C10.7152 18.359 11.0113 18.8856 11.306 19.2227C11.6017 19.5609 11.838 19.6476 12 19.6476C12.162 19.6475 12.3984 19.5608 12.694 19.2227C12.9887 18.8855 13.2848 18.359 13.5469 17.6501C14.0694 16.2371 14.4057 14.2398 14.4057 12.0004ZM15.75 12.0004C15.75 14.3581 15.3973 16.5225 14.8059 18.1219C14.5112 18.9191 14.144 19.6113 13.7022 20.1165C13.2614 20.6206 12.6881 21 12 21C11.3119 21 10.7378 20.6206 10.297 20.1165C9.85542 19.6113 9.48876 18.9189 9.19406 18.1219C8.60269 16.5225 8.25002 14.3581 8.25 12.0004C8.25 9.64267 8.60271 7.47825 9.19406 5.8788C9.48881 5.08162 9.85531 4.38875 10.297 3.88353C10.7378 3.37938 11.3119 3 12 3C12.688 3.00003 13.2615 3.37955 13.7022 3.88353C14.144 4.38875 14.5112 5.08162 14.8059 5.8788C15.3973 7.47825 15.75 9.64269 15.75 12.0004Z" fill="#6A7282"/>
<path d="M19.6476 12.0004C19.6476 10.9229 19.4236 9.89794 19.0216 8.9682C17.7327 9.32551 16.3629 9.57358 14.9658 9.72037H14.965C13.2496 9.89941 11.4937 9.9222 9.77394 9.78788L9.03938 9.72037C7.64042 9.5734 6.2687 9.32476 4.97839 8.96673C4.57612 9.89676 4.35317 10.9225 4.35317 12.0004C4.3532 13.077 4.57624 14.1012 4.97766 15.0303C6.26809 14.6722 7.64026 14.4244 9.03938 14.2774L9.77394 14.2099C11.4937 14.0756 13.2496 14.0984 14.965 14.2774H14.9658L15.5653 14.3464C16.7546 14.4972 17.9182 14.7234 19.0223 15.0296C19.4236 14.1006 19.6475 13.0768 19.6476 12.0004ZM14.8241 15.6218C13.1903 15.4513 11.517 15.4308 9.87961 15.5587L9.18028 15.6225C7.95638 15.7511 6.76498 15.9614 5.64397 16.2536C7.01621 18.3003 9.35083 19.6476 12.0004 19.6476C14.6502 19.6475 16.9839 18.2993 18.356 16.2522C17.2363 15.9605 16.0464 15.751 14.8241 15.6225V15.6218ZM12.0004 4.35317C9.35189 4.35317 7.0179 5.69886 5.64544 7.74418C6.76605 8.03624 7.95686 8.24674 9.18028 8.37527L9.87961 8.43911C11.517 8.56697 13.1903 8.54576 14.8241 8.37527L15.3958 8.30923C16.417 8.17974 17.4105 7.99073 18.3546 7.74491C16.9822 5.69945 14.6489 4.35323 12.0004 4.35317ZM21 12.0004C21 13.4695 20.6453 14.8548 20.0211 16.0797C20.0017 16.1311 19.9775 16.1791 19.9477 16.2228C18.4348 19.0646 15.4446 20.9999 12.0004 21C8.53885 21 5.53591 19.0453 4.03029 16.1802C4.01613 16.1557 4.00257 16.1306 3.9914 16.1039C3.35953 14.8731 3.00003 13.4791 3 12.0004C3 10.5239 3.35771 9.13134 3.98773 7.90195C4.00244 7.86556 4.02115 7.83164 4.0413 7.79922C5.55053 4.94561 8.54729 3 12.0004 3C15.4408 3.00006 18.4288 4.93112 19.9433 7.76766C19.9769 7.81549 20.0033 7.86888 20.024 7.92617C20.6465 9.14973 21 10.5334 21 12.0004Z" fill="#6A7282"/>
</svg>
